<svg xmlns="http://www.w3.org/2000/svg" viewBox="0 0 96 96" fill="none">
  <!-- Background circle -->
  <circle cx="48" cy="48" r="44" fill="#FEE2E2"/>
  
  <!-- Large heart -->
  <path d="M48 70C48 70 28 56 28 42C28 35 33 30 39 30C43 30 46 32 48 35C50 32 53 30 57 30C63 30 68 35 68 42C68 56 48 70 48 70Z" fill="#DC2626"/>
  
  <!-- Phone icon -->
  <g transform="translate(58, 56)">
    <rect x="0" y="0" width="18" height="26" rx="3" fill="#DC2626" stroke="white" stroke-width="2"/>
    <rect x="4" y="4" width="10" height="14" rx="1" fill="white"/>
    <circle cx="9" cy="21" r="2" fill="white"/>
  </g>
  
  <!-- Checkmark circle -->
  <g transform="translate(24, 24)">
    <circle cx="6" cy="6" r="6" fill="white" stroke="#DC2626" stroke-width="2"/>
    <path d="M4 6L5.5 7.5L8 4" stroke="#DC2626" stroke-width="1.5" stroke-linecap="round" stroke-linejoin="round" fill="none"/>
  </g>
</svg>